<?xml version="1.0" encoding="UTF-8" standalone="no"?>
<!DOCTYPE svg PUBLIC "-//W3C//DTD SVG 1.1//EN" "http://www.w3.org/Graphics/SVG/1.1/DTD/svg11.dtd">
<svg width="100%" height="100%" viewBox="0 0 768 538" version="1.1" xmlns="http://www.w3.org/2000/svg" xmlns:xlink="http://www.w3.org/1999/xlink" xml:space="preserve" xmlns:serif="http://www.serif.com/" style="fill-rule:evenodd;clip-rule:evenodd;stroke-linejoin:round;stroke-miterlimit:2;">
    <g transform="matrix(1,0,0,1,-127.833385,-243.178283)">
        <g transform="matrix(2.18788,0,0,1.752298,-704.828351,-513.970395)">
            <path d="M455.974,480.027C475.632,482.426 472.665,498.184 472.665,535.763C472.665,674.676 472.853,674.856 471.252,679.386C465.088,696.832 439.514,694.031 439.291,671.187C439.159,657.669 438.409,580.83 439.283,502.207C439.345,496.633 439.437,482.021 455.974,480.027ZM397.544,527.964C417.202,530.364 414.236,546.121 414.236,583.701C414.236,624.762 416.447,636.596 402.648,642.027C393.643,645.571 381.013,638.78 380.862,623.249C380.801,617.018 380.208,556.33 380.947,545.361C381.991,529.84 395.757,528.18 397.544,527.964ZM589.527,432.089C609.185,434.489 606.218,450.246 606.218,487.826C606.218,722.659 606.395,722.824 604.805,727.323C598.641,744.769 573.067,741.969 572.844,719.124C572.642,698.417 572.835,698.532 572.836,460.262C572.836,453.035 570.667,434.364 589.527,432.089ZM714.733,527.964C734.391,530.364 731.424,546.121 731.424,583.701C731.424,624.762 733.635,636.596 719.836,642.027C710.831,645.571 698.202,638.78 698.05,623.249C697.989,617.018 697.397,556.33 698.135,545.361C699.18,529.84 712.945,528.18 714.733,527.964ZM522.75,432.089C542.408,434.489 539.442,450.246 539.442,487.826C539.442,722.659 539.618,722.824 538.029,727.323C531.864,744.769 506.291,741.969 506.068,719.124C505.865,698.417 506.058,698.532 506.059,460.262C506.059,453.035 503.891,434.364 522.75,432.089ZM656.303,480.027C675.961,482.426 672.995,498.184 672.995,535.763C672.995,674.676 673.182,674.856 671.582,679.386C665.417,696.832 639.844,694.031 639.621,671.187C639.489,657.669 638.738,580.83 639.612,502.207C639.674,496.633 639.766,482.021 656.303,480.027Z" style="fill:rgb(245,213,203);fill-opacity:1;"/>
        </g>
    </g>
</svg>
